<svg class="dlpgr-sc" aria-hidden="true" viewBox="0 0 200 160"><circle cx="100" cy="86" r="66" fill="#f4f4f6"/><circle cx="100" cy="86" r="66" fill="none" stroke="#2a2a2a" stroke-width="2"/><ellipse cx="100" cy="132" rx="50" ry="5" fill="#d6d6dc"/><g class="bur"><g class="ly l0"><path d="M53 112h94a8 8 0 0 1-8 13H61a8 8 0 0 1-8-13z" fill="#E9A23B"/><path d="M60 118h80" stroke="#F6C46E" stroke-width="2" stroke-linecap="round"/></g><g class="ly l1"><rect x="49" y="99" width="102" height="14" rx="7" fill="#8A4A25"/><path d="M60 104h12M84 107h14M112 104h12M132 107h8" stroke="#B9703E" stroke-width="2.4" stroke-linecap="round"/></g><g class="ly l2"><path d="M48 94h104v6l-11 9-9-9h-11l-10 11-10-11h-14l-9 7-9-7z" fill="#FFC52E"/></g><g class="ly l3"><path d="M46 90q6-9 12 0t12 0t12 0t12 0t12 0t12 0t12 0t12 0v7H46z" fill="#5FB944"/></g><g class="ly l4"><rect x="54" y="83" width="92" height="8" rx="4" fill="#E0412F"/><path d="M64 87h10M92 87h12M122 87h10" stroke="#F3796A" stroke-width="2" stroke-linecap="round"/></g><g class="ly l5"><path d="M50 84a50 36 0 0 1 100 0z" fill="#F0AC45"/><path d="M62 70q8-14 28-17" stroke="#F8CD83" stroke-width="3" fill="none" stroke-linecap="round"/><g fill="#FFF3D0"><ellipse cx="80" cy="64" rx="3.4" ry="1.8" transform="rotate(-20 80 64)"/><ellipse cx="100" cy="58" rx="3.4" ry="1.8"/><ellipse cx="120" cy="64" rx="3.4" ry="1.8" transform="rotate(20 120 64)"/><ellipse cx="91" cy="72" rx="3.4" ry="1.8" transform="rotate(-10 91 72)"/><ellipse cx="111" cy="72" rx="3.4" ry="1.8" transform="rotate(10 111 72)"/></g></g></g><path class="sparkle" d="M158 40l2.6 6.4L167 49l-6.4 2.6L158 58l-2.6-6.4L149 49l6.4-2.6z"/><path class="sparkle b" d="M40 56l2 4.8L47 63l-5 2-2 5-2-5-5-2 5-2.2z"/></svg>